<mxfile host="app.diagrams.net" agent="Mozilla/5.0 (X11; Linux x86_64) AppleWebKit/537.36 (KHTML, like Gecko) Chrome/135.0.0.0 Safari/537.36" version="26.2.14">
  <diagram id="C5RBs43oDa-KdzZeNtuy" name="Page-1">
    <mxGraphModel dx="2951" dy="1679" grid="1" gridSize="10" guides="1" tooltips="1" connect="1" arrows="1" fold="1" page="1" pageScale="1" pageWidth="400" pageHeight="700" math="0" shadow="0">
      <root>
        <mxCell id="WIyWlLk6GJQsqaUBKTNV-0" />
        <mxCell id="WIyWlLk6GJQsqaUBKTNV-1" parent="WIyWlLk6GJQsqaUBKTNV-0" />
        <mxCell id="KIA3eYuHPXgUbmLSH-yL-4" value="Pointcloud&lt;div&gt;Model&lt;/div&gt;" style="ellipse;whiteSpace=wrap;html=1;labelBackgroundColor=none;fillColor=#FAE5C7;strokeColor=#0F8B8D;fontColor=#143642;" parent="WIyWlLk6GJQsqaUBKTNV-1" vertex="1">
          <mxGeometry x="320" y="360" width="120" height="80" as="geometry" />
        </mxCell>
        <mxCell id="pzbJs7wF6hVSrpVVCIfT-9" value="implement" style="edgeStyle=orthogonalEdgeStyle;rounded=0;orthogonalLoop=1;jettySize=auto;html=1;entryX=0;entryY=0.5;entryDx=0;entryDy=0;strokeColor=#A8201A;fontColor=#143642;fillColor=#FAE5C7;endArrow=circle;endFill=0;" edge="1" parent="WIyWlLk6GJQsqaUBKTNV-1" source="KIA3eYuHPXgUbmLSH-yL-5" target="KIA3eYuHPXgUbmLSH-yL-4">
          <mxGeometry relative="1" as="geometry" />
        </mxCell>
        <mxCell id="KIA3eYuHPXgUbmLSH-yL-5" value="Pointcloud" style="rounded=1;whiteSpace=wrap;html=1;labelBackgroundColor=none;fillColor=#FAE5C7;strokeColor=#0F8B8D;fontColor=#143642;" parent="WIyWlLk6GJQsqaUBKTNV-1" vertex="1">
          <mxGeometry x="100" y="370" width="120" height="60" as="geometry" />
        </mxCell>
        <mxCell id="KIA3eYuHPXgUbmLSH-yL-7" value="OFF" style="shape=note;whiteSpace=wrap;html=1;backgroundOutline=1;darkOpacity=0.05;labelBackgroundColor=none;fillColor=#FAE5C7;strokeColor=#0F8B8D;fontColor=#143642;" parent="WIyWlLk6GJQsqaUBKTNV-1" vertex="1">
          <mxGeometry x="130" y="210" width="60" height="80" as="geometry" />
        </mxCell>
        <mxCell id="pzbJs7wF6hVSrpVVCIfT-6" value="use" style="edgeStyle=orthogonalEdgeStyle;rounded=0;orthogonalLoop=1;jettySize=auto;html=1;entryX=0.5;entryY=0;entryDx=0;entryDy=0;strokeColor=#A8201A;fontColor=#143642;fillColor=#FAE5C7;endArrow=classic;endFill=1;" edge="1" parent="WIyWlLk6GJQsqaUBKTNV-1" source="KIA3eYuHPXgUbmLSH-yL-9" target="KIA3eYuHPXgUbmLSH-yL-4">
          <mxGeometry x="-0.4074" relative="1" as="geometry">
            <mxPoint as="offset" />
          </mxGeometry>
        </mxCell>
        <mxCell id="KIA3eYuHPXgUbmLSH-yL-9" value="Filtration&lt;div&gt;Model&lt;/div&gt;" style="ellipse;whiteSpace=wrap;html=1;labelBackgroundColor=none;fillColor=#FAE5C7;strokeColor=#0F8B8D;fontColor=#143642;" parent="WIyWlLk6GJQsqaUBKTNV-1" vertex="1">
          <mxGeometry x="540" y="210" width="120" height="80" as="geometry" />
        </mxCell>
        <mxCell id="pzbJs7wF6hVSrpVVCIfT-7" value="implement" style="edgeStyle=orthogonalEdgeStyle;rounded=0;orthogonalLoop=1;jettySize=auto;html=1;entryX=0.5;entryY=0;entryDx=0;entryDy=0;strokeColor=#A8201A;fontColor=#143642;fillColor=#FAE5C7;strokeWidth=1;endArrow=circle;endFill=0;startFill=0;" edge="1" parent="WIyWlLk6GJQsqaUBKTNV-1" source="KIA3eYuHPXgUbmLSH-yL-14" target="KIA3eYuHPXgUbmLSH-yL-9">
          <mxGeometry relative="1" as="geometry" />
        </mxCell>
        <mxCell id="KIA3eYuHPXgUbmLSH-yL-14" value="NewVR" style="rounded=1;whiteSpace=wrap;html=1;strokeColor=#0F8B8D;fontColor=#143642;fillColor=#FAE5C7;labelBackgroundColor=none;" parent="WIyWlLk6GJQsqaUBKTNV-1" vertex="1">
          <mxGeometry x="660" y="40" width="120" height="60" as="geometry" />
        </mxCell>
        <mxCell id="pzbJs7wF6hVSrpVVCIfT-8" value="implement" style="edgeStyle=orthogonalEdgeStyle;rounded=0;orthogonalLoop=1;jettySize=auto;html=1;exitX=0.5;exitY=1;exitDx=0;exitDy=0;entryX=0.5;entryY=0;entryDx=0;entryDy=0;strokeColor=#A8201A;fontColor=#143642;fillColor=#FAE5C7;endArrow=circle;endFill=0;" edge="1" parent="WIyWlLk6GJQsqaUBKTNV-1" source="KIA3eYuHPXgUbmLSH-yL-15" target="KIA3eYuHPXgUbmLSH-yL-9">
          <mxGeometry relative="1" as="geometry" />
        </mxCell>
        <mxCell id="KIA3eYuHPXgUbmLSH-yL-15" value="FullVR" style="rounded=1;whiteSpace=wrap;html=1;strokeColor=#0F8B8D;fontColor=#143642;fillColor=#FAE5C7;labelBackgroundColor=none;" parent="WIyWlLk6GJQsqaUBKTNV-1" vertex="1">
          <mxGeometry x="420" y="40" width="120" height="60" as="geometry" />
        </mxCell>
        <mxCell id="KIA3eYuHPXgUbmLSH-yL-18" value="FilteredComplex&lt;br&gt;Model" style="ellipse;whiteSpace=wrap;html=1;strokeColor=#0F8B8D;fontColor=#143642;fillColor=#FAE5C7;labelBackgroundColor=none;" parent="WIyWlLk6GJQsqaUBKTNV-1" vertex="1">
          <mxGeometry x="540" y="520" width="120" height="80" as="geometry" />
        </mxCell>
        <mxCell id="pzbJs7wF6hVSrpVVCIfT-3" value="use" style="edgeStyle=orthogonalEdgeStyle;rounded=0;orthogonalLoop=1;jettySize=auto;html=1;entryX=1;entryY=0.5;entryDx=0;entryDy=0;strokeColor=#A8201A;fontColor=#143642;fillColor=#FAE5C7;endArrow=classic;endFill=1;" edge="1" parent="WIyWlLk6GJQsqaUBKTNV-1" source="KIA3eYuHPXgUbmLSH-yL-19" target="KIA3eYuHPXgUbmLSH-yL-4">
          <mxGeometry relative="1" as="geometry" />
        </mxCell>
        <mxCell id="pzbJs7wF6hVSrpVVCIfT-4" value="use" style="edgeStyle=orthogonalEdgeStyle;rounded=0;orthogonalLoop=1;jettySize=auto;html=1;entryX=0;entryY=0.5;entryDx=0;entryDy=0;strokeColor=#A8201A;fontColor=#143642;fillColor=#FAE5C7;endArrow=classic;endFill=1;" edge="1" parent="WIyWlLk6GJQsqaUBKTNV-1" source="KIA3eYuHPXgUbmLSH-yL-19" target="KIA3eYuHPXgUbmLSH-yL-20">
          <mxGeometry relative="1" as="geometry" />
        </mxCell>
        <mxCell id="pzbJs7wF6hVSrpVVCIfT-5" value="use" style="edgeStyle=orthogonalEdgeStyle;rounded=0;orthogonalLoop=1;jettySize=auto;html=1;entryX=0.5;entryY=1;entryDx=0;entryDy=0;strokeColor=#A8201A;fontColor=#143642;fillColor=#FAE5C7;endArrow=classicThin;endFill=1;startArrow=none;startFill=0;" edge="1" parent="WIyWlLk6GJQsqaUBKTNV-1" source="KIA3eYuHPXgUbmLSH-yL-19" target="KIA3eYuHPXgUbmLSH-yL-9">
          <mxGeometry relative="1" as="geometry" />
        </mxCell>
        <mxCell id="pzbJs7wF6hVSrpVVCIfT-15" value="implement" style="edgeStyle=orthogonalEdgeStyle;rounded=0;orthogonalLoop=1;jettySize=auto;html=1;entryX=0.5;entryY=0;entryDx=0;entryDy=0;strokeColor=#A8201A;fontColor=#143642;fillColor=#FAE5C7;endArrow=circle;endFill=0;" edge="1" parent="WIyWlLk6GJQsqaUBKTNV-1" source="KIA3eYuHPXgUbmLSH-yL-19" target="KIA3eYuHPXgUbmLSH-yL-18">
          <mxGeometry relative="1" as="geometry" />
        </mxCell>
        <mxCell id="KIA3eYuHPXgUbmLSH-yL-19" value="FilteredComplex" style="rounded=1;whiteSpace=wrap;html=1;strokeColor=#0F8B8D;fontColor=#143642;fillColor=#FAE5C7;labelBackgroundColor=none;" parent="WIyWlLk6GJQsqaUBKTNV-1" vertex="1">
          <mxGeometry x="540" y="370" width="120" height="60" as="geometry" />
        </mxCell>
        <mxCell id="KIA3eYuHPXgUbmLSH-yL-20" value="SimplexTree&lt;br&gt;Model" style="ellipse;whiteSpace=wrap;html=1;strokeColor=#0F8B8D;fontColor=#143642;fillColor=#FAE5C7;labelBackgroundColor=none;" parent="WIyWlLk6GJQsqaUBKTNV-1" vertex="1">
          <mxGeometry x="760" y="360" width="120" height="80" as="geometry" />
        </mxCell>
        <mxCell id="pzbJs7wF6hVSrpVVCIfT-13" value="implement" style="edgeStyle=orthogonalEdgeStyle;rounded=0;orthogonalLoop=1;jettySize=auto;html=1;entryX=1;entryY=0.5;entryDx=0;entryDy=0;strokeColor=#A8201A;fontColor=#143642;fillColor=#FAE5C7;endArrow=circle;endFill=0;" edge="1" parent="WIyWlLk6GJQsqaUBKTNV-1" source="KIA3eYuHPXgUbmLSH-yL-23" target="KIA3eYuHPXgUbmLSH-yL-20">
          <mxGeometry relative="1" as="geometry" />
        </mxCell>
        <mxCell id="KIA3eYuHPXgUbmLSH-yL-23" value="SimplexTree" style="rounded=1;whiteSpace=wrap;html=1;strokeColor=#0F8B8D;fontColor=#143642;fillColor=#FAE5C7;labelBackgroundColor=none;" parent="WIyWlLk6GJQsqaUBKTNV-1" vertex="1">
          <mxGeometry x="980" y="370" width="120" height="60" as="geometry" />
        </mxCell>
        <mxCell id="pzbJs7wF6hVSrpVVCIfT-14" value="implement" style="edgeStyle=orthogonalEdgeStyle;rounded=0;orthogonalLoop=1;jettySize=auto;html=1;entryX=0.5;entryY=0;entryDx=0;entryDy=0;strokeColor=#A8201A;fontColor=#143642;fillColor=#FAE5C7;endArrow=circle;endFill=0;" edge="1" parent="WIyWlLk6GJQsqaUBKTNV-1" source="KIA3eYuHPXgUbmLSH-yL-24" target="KIA3eYuHPXgUbmLSH-yL-20">
          <mxGeometry relative="1" as="geometry">
            <mxPoint as="offset" />
          </mxGeometry>
        </mxCell>
        <mxCell id="KIA3eYuHPXgUbmLSH-yL-24" value="FullTree" style="rounded=1;whiteSpace=wrap;html=1;strokeColor=#0F8B8D;fontColor=#143642;fillColor=#FAE5C7;labelBackgroundColor=none;" parent="WIyWlLk6GJQsqaUBKTNV-1" vertex="1">
          <mxGeometry x="760" y="220" width="120" height="60" as="geometry" />
        </mxCell>
        <mxCell id="KIA3eYuHPXgUbmLSH-yL-33" value="PosHeap&lt;br&gt;Model" style="ellipse;whiteSpace=wrap;html=1;strokeColor=#0F8B8D;fontColor=#143642;fillColor=#FAE5C7;labelBackgroundColor=none;" parent="WIyWlLk6GJQsqaUBKTNV-1" vertex="1">
          <mxGeometry x="760" y="520" width="120" height="80" as="geometry" />
        </mxCell>
        <mxCell id="pzbJs7wF6hVSrpVVCIfT-19" value="implement" style="edgeStyle=orthogonalEdgeStyle;rounded=0;orthogonalLoop=1;jettySize=auto;html=1;entryX=1;entryY=0.5;entryDx=0;entryDy=0;strokeColor=#A8201A;fontColor=#143642;fillColor=#FAE5C7;endArrow=circle;endFill=0;" edge="1" parent="WIyWlLk6GJQsqaUBKTNV-1" source="KIA3eYuHPXgUbmLSH-yL-35" target="KIA3eYuHPXgUbmLSH-yL-33">
          <mxGeometry relative="1" as="geometry" />
        </mxCell>
        <mxCell id="KIA3eYuHPXgUbmLSH-yL-35" value="BitTreeHeap" style="rounded=1;whiteSpace=wrap;html=1;strokeColor=#0F8B8D;fontColor=#143642;fillColor=#FAE5C7;labelBackgroundColor=none;" parent="WIyWlLk6GJQsqaUBKTNV-1" vertex="1">
          <mxGeometry x="980" y="530" width="120" height="60" as="geometry" />
        </mxCell>
        <mxCell id="pzbJs7wF6hVSrpVVCIfT-18" value="implement" style="edgeStyle=orthogonalEdgeStyle;rounded=0;orthogonalLoop=1;jettySize=auto;html=1;entryX=0.5;entryY=0;entryDx=0;entryDy=0;strokeColor=#A8201A;fontColor=#143642;fillColor=#FAE5C7;endArrow=circle;endFill=0;" edge="1" parent="WIyWlLk6GJQsqaUBKTNV-1" source="KIA3eYuHPXgUbmLSH-yL-37" target="KIA3eYuHPXgUbmLSH-yL-33">
          <mxGeometry x="-0.2" relative="1" as="geometry">
            <mxPoint as="offset" />
          </mxGeometry>
        </mxCell>
        <mxCell id="KIA3eYuHPXgUbmLSH-yL-37" value="SetHeap" style="rounded=1;whiteSpace=wrap;html=1;strokeColor=#0F8B8D;fontColor=#143642;fillColor=#FAE5C7;labelBackgroundColor=none;" parent="WIyWlLk6GJQsqaUBKTNV-1" vertex="1">
          <mxGeometry x="980" y="450" width="120" height="60" as="geometry" />
        </mxCell>
        <mxCell id="KIA3eYuHPXgUbmLSH-yL-40" value="Matrix&lt;br&gt;Model" style="ellipse;whiteSpace=wrap;html=1;strokeColor=#0F8B8D;fontColor=#143642;fillColor=#FAE5C7;labelBackgroundColor=none;" parent="WIyWlLk6GJQsqaUBKTNV-1" vertex="1">
          <mxGeometry x="320" y="520" width="120" height="80" as="geometry" />
        </mxCell>
        <mxCell id="pzbJs7wF6hVSrpVVCIfT-20" value="implement" style="edgeStyle=orthogonalEdgeStyle;rounded=0;orthogonalLoop=1;jettySize=auto;html=1;entryX=0;entryY=0.5;entryDx=0;entryDy=0;strokeColor=#A8201A;fontColor=#143642;fillColor=#FAE5C7;endArrow=circle;endFill=0;" edge="1" parent="WIyWlLk6GJQsqaUBKTNV-1" source="KIA3eYuHPXgUbmLSH-yL-42" target="KIA3eYuHPXgUbmLSH-yL-40">
          <mxGeometry relative="1" as="geometry" />
        </mxCell>
        <mxCell id="KIA3eYuHPXgUbmLSH-yL-42" value="SparseMatrix" style="rounded=1;whiteSpace=wrap;html=1;strokeColor=#0F8B8D;fontColor=#143642;fillColor=#FAE5C7;labelBackgroundColor=none;" parent="WIyWlLk6GJQsqaUBKTNV-1" vertex="1">
          <mxGeometry x="100" y="530" width="120" height="60" as="geometry" />
        </mxCell>
        <mxCell id="pzbJs7wF6hVSrpVVCIfT-16" value="use" style="edgeStyle=orthogonalEdgeStyle;rounded=0;orthogonalLoop=1;jettySize=auto;html=1;entryX=0.5;entryY=1;entryDx=0;entryDy=0;strokeColor=#A8201A;fontColor=#143642;fillColor=#FAE5C7;" edge="1" parent="WIyWlLk6GJQsqaUBKTNV-1" source="KIA3eYuHPXgUbmLSH-yL-44" target="KIA3eYuHPXgUbmLSH-yL-18">
          <mxGeometry relative="1" as="geometry" />
        </mxCell>
        <mxCell id="KIA3eYuHPXgUbmLSH-yL-44" value="PersistenceDiagram&lt;br&gt;Model" style="ellipse;whiteSpace=wrap;html=1;strokeColor=#0F8B8D;fontColor=#143642;fillColor=#FAE5C7;labelBackgroundColor=none;" parent="WIyWlLk6GJQsqaUBKTNV-1" vertex="1">
          <mxGeometry x="540" y="690" width="120" height="80" as="geometry" />
        </mxCell>
        <mxCell id="pzbJs7wF6hVSrpVVCIfT-23" value="implement" style="edgeStyle=orthogonalEdgeStyle;rounded=0;orthogonalLoop=1;jettySize=auto;html=1;entryX=1;entryY=0.5;entryDx=0;entryDy=0;strokeColor=#A8201A;fontColor=#143642;fillColor=#FAE5C7;endArrow=circle;endFill=0;" edge="1" parent="WIyWlLk6GJQsqaUBKTNV-1" source="KIA3eYuHPXgUbmLSH-yL-45" target="KIA3eYuHPXgUbmLSH-yL-44">
          <mxGeometry relative="1" as="geometry" />
        </mxCell>
        <mxCell id="pzbJs7wF6hVSrpVVCIfT-24" value="use" style="edgeStyle=orthogonalEdgeStyle;rounded=0;orthogonalLoop=1;jettySize=auto;html=1;entryX=0.5;entryY=1;entryDx=0;entryDy=0;strokeColor=#A8201A;fontColor=#143642;fillColor=#FAE5C7;" edge="1" parent="WIyWlLk6GJQsqaUBKTNV-1" source="KIA3eYuHPXgUbmLSH-yL-45" target="KIA3eYuHPXgUbmLSH-yL-33">
          <mxGeometry relative="1" as="geometry" />
        </mxCell>
        <mxCell id="pzbJs7wF6hVSrpVVCIfT-28" value="use" style="edgeStyle=orthogonalEdgeStyle;rounded=0;orthogonalLoop=1;jettySize=auto;html=1;entryX=0;entryY=0.5;entryDx=0;entryDy=0;strokeColor=#A8201A;fontColor=#143642;fillColor=#FAE5C7;" edge="1" parent="WIyWlLk6GJQsqaUBKTNV-1" source="KIA3eYuHPXgUbmLSH-yL-45" target="pzbJs7wF6hVSrpVVCIfT-27">
          <mxGeometry relative="1" as="geometry" />
        </mxCell>
        <mxCell id="KIA3eYuHPXgUbmLSH-yL-45" value="Twist" style="rounded=1;whiteSpace=wrap;html=1;strokeColor=#0F8B8D;fontColor=#143642;fillColor=#FAE5C7;labelBackgroundColor=none;" parent="WIyWlLk6GJQsqaUBKTNV-1" vertex="1">
          <mxGeometry x="760" y="700" width="120" height="60" as="geometry" />
        </mxCell>
        <mxCell id="pzbJs7wF6hVSrpVVCIfT-22" value="implement" style="edgeStyle=orthogonalEdgeStyle;rounded=0;orthogonalLoop=1;jettySize=auto;html=1;entryX=0;entryY=0.5;entryDx=0;entryDy=0;strokeColor=#A8201A;fontColor=#143642;fillColor=#FAE5C7;endArrow=circle;endFill=0;" edge="1" parent="WIyWlLk6GJQsqaUBKTNV-1" source="KIA3eYuHPXgUbmLSH-yL-46" target="KIA3eYuHPXgUbmLSH-yL-44">
          <mxGeometry relative="1" as="geometry" />
        </mxCell>
        <mxCell id="pzbJs7wF6hVSrpVVCIfT-25" value="use" style="edgeStyle=orthogonalEdgeStyle;rounded=0;orthogonalLoop=1;jettySize=auto;html=1;entryX=0.5;entryY=1;entryDx=0;entryDy=0;strokeColor=#A8201A;fontColor=#143642;fillColor=#FAE5C7;" edge="1" parent="WIyWlLk6GJQsqaUBKTNV-1" source="KIA3eYuHPXgUbmLSH-yL-46" target="KIA3eYuHPXgUbmLSH-yL-40">
          <mxGeometry relative="1" as="geometry" />
        </mxCell>
        <mxCell id="pzbJs7wF6hVSrpVVCIfT-29" value="use" style="edgeStyle=orthogonalEdgeStyle;rounded=0;orthogonalLoop=1;jettySize=auto;html=1;entryX=1;entryY=0.5;entryDx=0;entryDy=0;strokeColor=#A8201A;fontColor=#143642;fillColor=#FAE5C7;" edge="1" parent="WIyWlLk6GJQsqaUBKTNV-1" source="KIA3eYuHPXgUbmLSH-yL-46" target="pzbJs7wF6hVSrpVVCIfT-26">
          <mxGeometry relative="1" as="geometry" />
        </mxCell>
        <mxCell id="KIA3eYuHPXgUbmLSH-yL-46" value="DoubleTwist" style="rounded=1;whiteSpace=wrap;html=1;strokeColor=#0F8B8D;fontColor=#143642;fillColor=#FAE5C7;labelBackgroundColor=none;" parent="WIyWlLk6GJQsqaUBKTNV-1" vertex="1">
          <mxGeometry x="320" y="700" width="120" height="60" as="geometry" />
        </mxCell>
        <mxCell id="pzbJs7wF6hVSrpVVCIfT-41" value="use" style="edgeStyle=orthogonalEdgeStyle;rounded=0;orthogonalLoop=1;jettySize=auto;html=1;entryX=0;entryY=0.5;entryDx=0;entryDy=0;strokeColor=#A8201A;fontColor=#143642;fillColor=#FAE5C7;" edge="1" parent="WIyWlLk6GJQsqaUBKTNV-1" source="KIA3eYuHPXgUbmLSH-yL-47" target="pzbJs7wF6hVSrpVVCIfT-40">
          <mxGeometry relative="1" as="geometry" />
        </mxCell>
        <mxCell id="KIA3eYuHPXgUbmLSH-yL-47" value="Harmonic&lt;br&gt;Model" style="ellipse;whiteSpace=wrap;html=1;strokeColor=#0F8B8D;fontColor=#143642;fillColor=#FAE5C7;labelBackgroundColor=none;" parent="WIyWlLk6GJQsqaUBKTNV-1" vertex="1">
          <mxGeometry x="540" y="980" width="120" height="80" as="geometry" />
        </mxCell>
        <mxCell id="KIA3eYuHPXgUbmLSH-yL-48" value="Solver&lt;br&gt;Model" style="ellipse;whiteSpace=wrap;html=1;strokeColor=#0F8B8D;fontColor=#143642;fillColor=#FAE5C7;labelBackgroundColor=none;" parent="WIyWlLk6GJQsqaUBKTNV-1" vertex="1">
          <mxGeometry x="320" y="1140" width="120" height="80" as="geometry" />
        </mxCell>
        <mxCell id="KIA3eYuHPXgUbmLSH-yL-49" value="Separator&lt;br&gt;Model" style="ellipse;whiteSpace=wrap;html=1;strokeColor=#0F8B8D;fontColor=#143642;fillColor=#FAE5C7;labelBackgroundColor=none;" parent="WIyWlLk6GJQsqaUBKTNV-1" vertex="1">
          <mxGeometry x="760" y="1140" width="120" height="80" as="geometry" />
        </mxCell>
        <mxCell id="pzbJs7wF6hVSrpVVCIfT-30" value="implement" style="edgeStyle=orthogonalEdgeStyle;rounded=0;orthogonalLoop=1;jettySize=auto;html=1;entryX=0.5;entryY=1;entryDx=0;entryDy=0;strokeColor=#A8201A;fontColor=#143642;fillColor=#FAE5C7;endArrow=circle;endFill=0;" edge="1" parent="WIyWlLk6GJQsqaUBKTNV-1" source="KIA3eYuHPXgUbmLSH-yL-50" target="KIA3eYuHPXgUbmLSH-yL-47">
          <mxGeometry relative="1" as="geometry" />
        </mxCell>
        <mxCell id="pzbJs7wF6hVSrpVVCIfT-35" value="use" style="edgeStyle=orthogonalEdgeStyle;rounded=0;orthogonalLoop=1;jettySize=auto;html=1;entryX=0;entryY=0.5;entryDx=0;entryDy=0;strokeColor=#A8201A;fontColor=#143642;fillColor=#FAE5C7;" edge="1" parent="WIyWlLk6GJQsqaUBKTNV-1" source="KIA3eYuHPXgUbmLSH-yL-50" target="KIA3eYuHPXgUbmLSH-yL-49">
          <mxGeometry relative="1" as="geometry" />
        </mxCell>
        <mxCell id="pzbJs7wF6hVSrpVVCIfT-36" value="use" style="edgeStyle=orthogonalEdgeStyle;rounded=0;orthogonalLoop=1;jettySize=auto;html=1;entryX=1;entryY=0.5;entryDx=0;entryDy=0;strokeColor=#A8201A;fontColor=#143642;fillColor=#FAE5C7;" edge="1" parent="WIyWlLk6GJQsqaUBKTNV-1" source="KIA3eYuHPXgUbmLSH-yL-50" target="KIA3eYuHPXgUbmLSH-yL-48">
          <mxGeometry relative="1" as="geometry" />
        </mxCell>
        <mxCell id="KIA3eYuHPXgUbmLSH-yL-50" value="Harmonic" style="rounded=1;whiteSpace=wrap;html=1;strokeColor=#0F8B8D;fontColor=#143642;fillColor=#FAE5C7;labelBackgroundColor=none;" parent="WIyWlLk6GJQsqaUBKTNV-1" vertex="1">
          <mxGeometry x="540" y="1150" width="120" height="60" as="geometry" />
        </mxCell>
        <mxCell id="pzbJs7wF6hVSrpVVCIfT-38" value="implement" style="edgeStyle=orthogonalEdgeStyle;rounded=0;orthogonalLoop=1;jettySize=auto;html=1;entryX=0.5;entryY=0;entryDx=0;entryDy=0;strokeColor=#A8201A;fontColor=#143642;fillColor=#FAE5C7;endArrow=circle;endFill=0;" edge="1" parent="WIyWlLk6GJQsqaUBKTNV-1" source="KIA3eYuHPXgUbmLSH-yL-51" target="KIA3eYuHPXgUbmLSH-yL-48">
          <mxGeometry relative="1" as="geometry" />
        </mxCell>
        <mxCell id="KIA3eYuHPXgUbmLSH-yL-51" value="ShiftAndInvertSolver" style="rounded=1;whiteSpace=wrap;html=1;strokeColor=#0F8B8D;fontColor=#143642;fillColor=#FAE5C7;labelBackgroundColor=none;" parent="WIyWlLk6GJQsqaUBKTNV-1" vertex="1">
          <mxGeometry x="320" y="990" width="120" height="60" as="geometry" />
        </mxCell>
        <mxCell id="pzbJs7wF6hVSrpVVCIfT-39" value="implement" style="edgeStyle=orthogonalEdgeStyle;rounded=0;orthogonalLoop=1;jettySize=auto;html=1;entryX=0;entryY=0.5;entryDx=0;entryDy=0;strokeColor=#A8201A;fontColor=#143642;fillColor=#FAE5C7;endArrow=circle;endFill=0;" edge="1" parent="WIyWlLk6GJQsqaUBKTNV-1" source="KIA3eYuHPXgUbmLSH-yL-52" target="KIA3eYuHPXgUbmLSH-yL-48">
          <mxGeometry relative="1" as="geometry" />
        </mxCell>
        <mxCell id="KIA3eYuHPXgUbmLSH-yL-52" value="SelfAdjointSolver" style="rounded=1;whiteSpace=wrap;html=1;strokeColor=#0F8B8D;fontColor=#143642;fillColor=#FAE5C7;labelBackgroundColor=none;" parent="WIyWlLk6GJQsqaUBKTNV-1" vertex="1">
          <mxGeometry x="100" y="1150" width="120" height="60" as="geometry" />
        </mxCell>
        <mxCell id="pzbJs7wF6hVSrpVVCIfT-34" value="implement" style="edgeStyle=orthogonalEdgeStyle;rounded=0;orthogonalLoop=1;jettySize=auto;html=1;entryX=1;entryY=0.5;entryDx=0;entryDy=0;strokeColor=#A8201A;fontColor=#143642;fillColor=#FAE5C7;endArrow=circle;endFill=0;" edge="1" parent="WIyWlLk6GJQsqaUBKTNV-1" source="KIA3eYuHPXgUbmLSH-yL-53" target="KIA3eYuHPXgUbmLSH-yL-49">
          <mxGeometry relative="1" as="geometry" />
        </mxCell>
        <mxCell id="KIA3eYuHPXgUbmLSH-yL-53" value="SVDSeparator" style="rounded=1;whiteSpace=wrap;html=1;strokeColor=#0F8B8D;fontColor=#143642;fillColor=#FAE5C7;labelBackgroundColor=none;" parent="WIyWlLk6GJQsqaUBKTNV-1" vertex="1">
          <mxGeometry x="980" y="1150" width="120" height="60" as="geometry" />
        </mxCell>
        <mxCell id="pzbJs7wF6hVSrpVVCIfT-10" value="read" style="edgeStyle=orthogonalEdgeStyle;rounded=0;orthogonalLoop=1;jettySize=auto;html=1;entryX=0.5;entryY=1;entryDx=0;entryDy=0;entryPerimeter=0;strokeColor=#A8201A;fontColor=#143642;fillColor=#FAE5C7;endArrow=diamond;endFill=1;" edge="1" parent="WIyWlLk6GJQsqaUBKTNV-1" source="KIA3eYuHPXgUbmLSH-yL-5" target="KIA3eYuHPXgUbmLSH-yL-7">
          <mxGeometry relative="1" as="geometry" />
        </mxCell>
        <mxCell id="pzbJs7wF6hVSrpVVCIfT-26" value="PosHeap&lt;br&gt;Model" style="ellipse;whiteSpace=wrap;html=1;strokeColor=#0F8B8D;fontColor=#143642;fillColor=#FAE5C7;labelBackgroundColor=none;" vertex="1" parent="WIyWlLk6GJQsqaUBKTNV-1">
          <mxGeometry x="100" y="690" width="120" height="80" as="geometry" />
        </mxCell>
        <mxCell id="pzbJs7wF6hVSrpVVCIfT-27" value="Matrix&lt;br&gt;Model" style="ellipse;whiteSpace=wrap;html=1;strokeColor=#0F8B8D;fontColor=#143642;fillColor=#FAE5C7;labelBackgroundColor=none;" vertex="1" parent="WIyWlLk6GJQsqaUBKTNV-1">
          <mxGeometry x="980" y="690" width="120" height="80" as="geometry" />
        </mxCell>
        <mxCell id="pzbJs7wF6hVSrpVVCIfT-40" value="FilteredComplex&lt;br&gt;Model" style="ellipse;whiteSpace=wrap;html=1;strokeColor=#0F8B8D;fontColor=#143642;fillColor=#FAE5C7;labelBackgroundColor=none;" vertex="1" parent="WIyWlLk6GJQsqaUBKTNV-1">
          <mxGeometry x="760" y="980" width="120" height="80" as="geometry" />
        </mxCell>
        <mxCell id="pzbJs7wF6hVSrpVVCIfT-42" value="Persistence&lt;br&gt;Pairs" style="shape=cube;whiteSpace=wrap;html=1;boundedLbl=1;backgroundOutline=1;darkOpacity=0.05;darkOpacity2=0.1;strokeColor=#0F8B8D;fontColor=#143642;fillColor=#FAE5C7;" vertex="1" parent="WIyWlLk6GJQsqaUBKTNV-1">
          <mxGeometry x="540" y="840" width="120" height="80" as="geometry" />
        </mxCell>
        <mxCell id="pzbJs7wF6hVSrpVVCIfT-43" value="produce" style="edgeStyle=orthogonalEdgeStyle;rounded=0;orthogonalLoop=1;jettySize=auto;html=1;entryX=0.5;entryY=-0.025;entryDx=0;entryDy=0;entryPerimeter=0;strokeColor=#A8201A;fontColor=#143642;fillColor=#FAE5C7;endArrow=ERmany;endFill=0;" edge="1" parent="WIyWlLk6GJQsqaUBKTNV-1" source="KIA3eYuHPXgUbmLSH-yL-44" target="pzbJs7wF6hVSrpVVCIfT-42">
          <mxGeometry relative="1" as="geometry" />
        </mxCell>
        <mxCell id="pzbJs7wF6hVSrpVVCIfT-45" value="Harmonic&lt;br&gt;Representatives" style="shape=cube;whiteSpace=wrap;html=1;boundedLbl=1;backgroundOutline=1;darkOpacity=0.05;darkOpacity2=0.1;strokeColor=#0F8B8D;fontColor=#143642;fillColor=#FAE5C7;" vertex="1" parent="WIyWlLk6GJQsqaUBKTNV-1">
          <mxGeometry x="540" y="1270" width="120" height="80" as="geometry" />
        </mxCell>
        <mxCell id="pzbJs7wF6hVSrpVVCIfT-46" value="produce" style="edgeStyle=orthogonalEdgeStyle;rounded=0;orthogonalLoop=1;jettySize=auto;html=1;entryX=0.5;entryY=-0.037;entryDx=0;entryDy=0;entryPerimeter=0;strokeColor=#A8201A;fontColor=#143642;fillColor=#FAE5C7;endArrow=ERmany;endFill=0;" edge="1" parent="WIyWlLk6GJQsqaUBKTNV-1" source="KIA3eYuHPXgUbmLSH-yL-50" target="pzbJs7wF6hVSrpVVCIfT-45">
          <mxGeometry relative="1" as="geometry" />
        </mxCell>
        <mxCell id="pzbJs7wF6hVSrpVVCIfT-47" value="consume" style="edgeStyle=orthogonalEdgeStyle;rounded=0;orthogonalLoop=1;jettySize=auto;html=1;entryX=0.5;entryY=1.038;entryDx=0;entryDy=0;entryPerimeter=0;strokeColor=#A8201A;fontColor=#143642;fillColor=#FAE5C7;endArrow=diamond;endFill=1;" edge="1" parent="WIyWlLk6GJQsqaUBKTNV-1" source="KIA3eYuHPXgUbmLSH-yL-47" target="pzbJs7wF6hVSrpVVCIfT-42">
          <mxGeometry relative="1" as="geometry" />
        </mxCell>
      </root>
    </mxGraphModel>
  </diagram>
</mxfile>
